<?xml version="1.0" encoding="UTF-8" standalone="no"?>
<svg
   xmlns:dc="http://purl.org/dc/elements/1.1/"
   xmlns:cc="http://creativecommons.org/ns#"
   xmlns:rdf="http://www.w3.org/1999/02/22-rdf-syntax-ns#"
   xmlns:svg="http://www.w3.org/2000/svg"
   xmlns="http://www.w3.org/2000/svg"
   xmlns:xlink="http://www.w3.org/1999/xlink"
   xmlns:sodipodi="http://sodipodi.sourceforge.net/DTD/sodipodi-0.dtd"
   xmlns:inkscape="http://www.inkscape.org/namespaces/inkscape"
   sodipodi:docname="dibujo.svg"
   inkscape:version="1.1-dev (ddb55ca, 2020-02-02)"
   id="svg8"
   version="1.1"
   viewBox="0 0 210 297"
   height="297mm"
   width="210mm">
  <defs
     id="defs2">
    <linearGradient
       id="linearGradient432"
       inkscape:collect="always">
      <stop
         id="stop428"
         offset="0"
         style="stop-color:#ff6600;stop-opacity:1;" />
      <stop
         id="stop430"
         offset="1"
         style="stop-color:#ff6600;stop-opacity:0;" />
    </linearGradient>
    <linearGradient
       id="linearGradient424"
       inkscape:collect="always">
      <stop
         id="stop420"
         offset="0"
         style="stop-color:#ff6600;stop-opacity:1;" />
      <stop
         id="stop422"
         offset="1"
         style="stop-color:#ff6600;stop-opacity:0;" />
    </linearGradient>
    <linearGradient
       id="linearGradient416"
       inkscape:collect="always">
      <stop
         id="stop412"
         offset="0"
         style="stop-color:#ff6600;stop-opacity:1;" />
      <stop
         id="stop414"
         offset="1"
         style="stop-color:#ff6600;stop-opacity:0;" />
    </linearGradient>
    <linearGradient
       id="linearGradient408"
       inkscape:collect="always">
      <stop
         id="stop404"
         offset="0"
         style="stop-color:#000080;stop-opacity:1;" />
      <stop
         id="stop406"
         offset="1"
         style="stop-color:#000080;stop-opacity:0;" />
    </linearGradient>
    <linearGradient
       id="linearGradient390"
       inkscape:collect="always">
      <stop
         id="stop386"
         offset="0"
         style="stop-color:#ff0000;stop-opacity:1;" />
      <stop
         id="stop388"
         offset="1"
         style="stop-color:#ff0000;stop-opacity:0;" />
    </linearGradient>
    <linearGradient
       id="linearGradient374"
       inkscape:collect="always">
      <stop
         id="stop370"
         offset="0"
         style="stop-color:#000000;stop-opacity:1;" />
      <stop
         id="stop372"
         offset="1"
         style="stop-color:#000000;stop-opacity:0;" />
    </linearGradient>
    <rect
       id="rect12"
       height="60.684067"
       width="75.091076"
       y="98.229605"
       x="29.68717" />
    <linearGradient
       gradientTransform="matrix(2.4884568,0,0,3.3981044,1.33724,-341.81672)"
       gradientUnits="userSpaceOnUse"
       y2="130.21184"
       x2="69.456097"
       y1="130.21184"
       x1="38.09505"
       id="linearGradient376"
       xlink:href="#linearGradient374"
       inkscape:collect="always" />
    <linearGradient
       gradientTransform="matrix(2.2460852,0,0,3.7317277,6.030191,-389.36572)"
       gradientUnits="userSpaceOnUse"
       y2="130.76948"
       x2="42.67053"
       y1="130.76948"
       x1="22.836922"
       id="linearGradient392"
       xlink:href="#linearGradient390"
       inkscape:collect="always" />
    <linearGradient
       gradientTransform="translate(23.912343,-3.72116)"
       gradientUnits="userSpaceOnUse"
       y2="177.03004"
       x2="80.932175"
       y1="186.96189"
       x1="30.377526"
       id="linearGradient410"
       xlink:href="#linearGradient408"
       inkscape:collect="always" />
    <linearGradient
       gradientTransform="matrix(0.99999308,0,0,1,16.686102,-15.47175)"
       gradientUnits="userSpaceOnUse"
       y2="163.54708"
       x2="145.37315"
       y1="163.54708"
       x1="69.097738"
       id="linearGradient418"
       xlink:href="#linearGradient416"
       inkscape:collect="always" />
    <linearGradient
       gradientTransform="translate(8.735273,-11.09113)"
       gradientUnits="userSpaceOnUse"
       y2="182.04546"
       x2="122.07342"
       y1="188.46559"
       x1="96.986147"
       id="linearGradient426"
       xlink:href="#linearGradient424"
       inkscape:collect="always" />
    <linearGradient
       gradientTransform="matrix(1.178583,0,0,0.83563042,-21.800249,29.276933)"
       gradientUnits="userSpaceOnUse"
       y2="199.5496"
       x2="164.36742"
       y1="199.5496"
       x1="122.07342"
       id="linearGradient434"
       xlink:href="#linearGradient432"
       inkscape:collect="always" />
  </defs>
  <sodipodi:namedview
     inkscape:window-maximized="0"
     inkscape:window-y="23"
     inkscape:window-x="0"
     inkscape:window-height="816"
     inkscape:window-width="1251"
     inkscape:object-paths="true"
     showgrid="false"
     inkscape:current-layer="layer1"
     inkscape:document-units="mm"
     inkscape:cy="548.43721"
     inkscape:cx="507.15518"
     inkscape:zoom="0.49213437"
     inkscape:pageshadow="2"
     inkscape:pageopacity="0.0"
     borderopacity="1.0"
     bordercolor="#666666"
     pagecolor="#ffffff"
     id="base" />
  <metadata
     id="metadata5">
    <rdf:RDF>
      <cc:Work
         rdf:about="">
        <dc:format>image/svg+xml</dc:format>
        <dc:type
           rdf:resource="http://purl.org/dc/dcmitype/StillImage" />
        <dc:title></dc:title>
      </cc:Work>
    </rdf:RDF>
  </metadata>
  <g
     id="layer1"
     inkscape:groupmode="layer"
     inkscape:label="Capa 1">
    <text
       style="fill:black;fill-opacity:1;line-height:1.25;stroke:none;font-family:sans-serif;font-style:normal;font-weight:normal;font-size:10.58333333000000032px;shape-inside:url(#rect12);white-space:pre;"
       id="text10"
       xml:space="preserve" />
    <path
       inkscape:connector-curvature="0"
       d="m 66.242162,148.40547 c 2.42745,-21.38414 4.261012,-42.93536 6.235467,-64.443359 0.929015,-10.29848 2.274332,-20.66925 1.521514,-31.11033 -0.451353,-2.6021 -0.284629,-5.88967 -1.255557,-8.20088 -2.915208,2.984 -6.095794,5.34913 -8.745612,8.95208 -0.379368,0.5158 0.295614,1.55318 0.451441,2.32539 0.251155,1.2446 0.501827,2.48973 0.769453,3.72482 1.217587,5.61924 2.609537,11.10734 4.01605,16.60115 1.822664,6.18474 3.11446,12.85379 5.135732,18.88217 0.719736,2.1466 1.249436,3.18357 2.119006,5.093439 0.959413,1.99852 1.931876,3.96137 3.250719,5.30297 2.875251,-3.14786 5.909165,-5.928189 8.62576,-9.443589 0.341278,-0.44161 0.197655,-1.3994 0.29463,-2.0998 0.159382,-1.1512 0.316147,-2.30341 0.474398,-3.45502 0.698685,-5.08463 1.298773,-10.18993 1.891922,-15.31132 0.800253,-7.31109 1.851363,-14.55232 2.415193,-21.92935 0.269036,-3.4367 0.284184,-6.90257 0.326408,-10.36099 -0.689177,1.19926 0.264209,-1.42399 0.04795,-1.22692 -2.9827,2.71793 -6.112624,5.07653 -8.868874,8.3893 -0.314973,0.37858 0.23572,1.23098 0.351861,1.84739 0.971524,5.15646 0.560384,2.92321 1.615188,9.09068 2.823754,15.41595 4.133213,31.36192 5.005844,47.358199 0.537279,9.69984 0.914817,19.42577 1.033962,29.16535 0.02022,2.59698 0.06197,5.19292 0.04903,7.79021 0,0 8.868183,-7.50884 8.868183,-7.50884 v 0 c -0.0155,-2.60523 0.0338,-5.21904 -0.15469,-7.81196 -0.59742,-9.54766 -1.1253,-19.10674 -1.69385,-28.65918 -1.004608,-16.081579 -2.441108,-32.082489 -4.820395,-47.779439 -0.44349,-3.41382 -0.812537,-6.10134 -1.186692,-9.45284 -0.0717,-0.64219 0.185437,-2.14608 -0.18656,-1.93482 -11.041292,6.27034 -9.133041,1.78126 -8.962958,8.26014 0.02311,3.36303 -0.03939,6.72864 -0.241443,10.07667 -0.500207,7.22369 -1.32353,14.36387 -2.076153,21.52349 -0.621939,5.18292 -1.289253,10.31759 -2.155056,15.40602 -0.201877,1.18643 -0.416267,2.36715 -0.641935,3.541709 -0.146714,0.76359 -0.915748,2.59747 -0.474989,2.2715 2.963889,-2.19201 5.606532,-5.426559 8.409794,-8.139859 0.01213,0.21121 0.09227,0.44291 0.03619,0.63342 -0.0911,0.30936 -0.429276,-0.0799 -0.599388,-0.2769 -0.847439,-0.9817 -1.495664,-2.41718 -2.226315,-3.60022 -3.38733,-6.86145 -5.37459,-15.15727 -7.55561,-23.18291 -1.331186,-5.51583 -2.678579,-11.01415 -3.656003,-16.7406 -0.214051,-1.25412 -0.404619,-2.52075 -0.55897,-3.79886 -0.08802,-0.72892 0.252634,-2.47089 -0.167063,-2.21303 -3.100865,1.90523 -5.845341,5.13527 -8.768016,7.70288 -0.03781,-0.88412 0.553754,1.91677 0.871744,4.29873 0.108014,0.80904 0.193904,1.62576 0.290843,2.43868 0.814516,9.98924 -0.155923,20.03856 -0.736895,29.99473 -1.570008,21.945099 -3.337578,43.997449 -7.293558,65.169849 0,0 8.918297,-7.15988 8.918297,-7.15988 z"
       id="path356"
       style="fill:url(#linearGradient392);fill-opacity:1;fill-rule:nonzero;stroke:none;stroke-width:0.766002" />
    <path
       inkscape:connector-curvature="0"
       d="m 106.03879,133.18651 c 1.53392,-7.43905 3.63558,-14.63266 5.37491,-21.98239 2.26428,-9.56795 2.64615,-11.913392 4.66788,-21.929138 3.13767,-15.138743 5.75189,-30.466072 8.73282,-45.660829 1.49599,-7.02262 4.62475,-6.772252 -9.08649,4.21657 -0.005,0.003 0.0122,1.359424 0.0179,1.851065 0.81247,11.360907 3.2776,22.34687 5.80521,33.173465 3.14952,12.729886 7.11663,25.185787 12.19547,36.719807 2.95753,6.71647 4.75006,9.75 8.0944,15.9455 6.353,11.25141 15.04314,19.10571 23.56898,26.92945 0,0 8.76585,-7.69143 8.76585,-7.69143 v 0 c -8.71609,-7.33927 -17.34139,-15.1452 -23.90751,-26.0721 -3.64523,-6.44177 -5.02613,-8.52907 -8.19584,-15.64799 -5.10128,-11.45702 -8.8268,-23.934192 -11.88886,-36.63807 -2.34818,-10.898763 -4.60598,-22.117033 -4.57309,-33.571507 0.008,-0.397993 0.0231,-0.795646 0.0239,-1.193688 5.7e-4,-0.285253 0.17544,-0.955574 -0.0199,-0.854919 -10.51212,5.416246 -9.5161,1.638699 -10.46763,9.196821 -1.97904,15.069303 -4.42532,30.025577 -7.48657,44.757661 -2.48291,11.351842 -2.37574,11.438112 -5.18437,22.167162 -1.75947,6.72122 -3.892955,13.25194 -5.629153,19.98076 -0.270856,1.04973 -0.474383,2.12962 -0.711572,3.19443 0,0 9.903465,-6.89063 9.903465,-6.89063 z"
       id="path362"
       style="fill:url(#linearGradient376);fill-opacity:1;fill-rule:nonzero;stroke:none;stroke-width:0.769392" />
    <path
       inkscape:connector-curvature="0"
       d="m 116.30918,111.22145 c 8.60695,-6.33585 16.97007,-12.945818 25.43869,-19.436988 1.26633,-0.94029 2.53266,-1.88057 3.79899,-2.82086 0,0 -10.63528,3.94197 -10.63528,3.94197 v 0 c -1.1933,0.91767 -2.3866,1.83538 -3.5799,2.75309 -8.62386,6.744628 -17.23203,13.538238 -26.36617,19.696428 0,0 11.34367,-4.13364 11.34367,-4.13364 z"
       id="path364"
       style="fill:#000000;fill-opacity:1;fill-rule:nonzero;stroke:none;stroke-width:0.701335" />
    <path
       inkscape:connector-curvature="0"
       d="m 99.979564,141.79265 c -0.117169,-4.24466 -0.813224,-10.19404 -5.095389,-12.40284 -1.103569,-0.56924 -2.409774,-0.60048 -3.614663,-0.90072 -1.608024,0.39256 -3.336353,0.45205 -4.824071,1.17768 -3.882393,1.89361 -7.619603,4.11578 -11.145356,6.61133 -1.879113,1.33005 -3.457141,3.06045 -4.970335,4.79548 -3.492289,4.00425 -6.202699,8.48362 -8.263845,13.38037 -1.20632,2.86591 -2.006592,5.88626 -3.009887,8.82939 -3.423319,12.39013 -5.674352,25.15954 -4.410136,38.05126 0.747242,7.61992 1.911266,11.25482 3.714364,18.56173 0.98503,2.45619 1.784035,4.99542 2.955091,7.36856 2.326508,4.71464 5.861587,9.98987 11.61814,10.649 3.732266,0.42736 5.457518,-0.95987 8.660982,-2.4811 3.242276,-2.20137 6.709569,-4.1032 9.726824,-6.60411 1.331857,-1.10393 2.246979,-2.64393 3.184546,-4.09771 4.245346,-6.58279 5.888571,-14.36126 7.559181,-21.8855 1.54561,-6.89381 2.23809,-13.93049 2.70556,-20.9673 0.23065,-2.48615 0.0815,-4.97754 0.0624,-7.46779 0.004,-0.36717 0.008,-0.73433 0.0115,-1.1015 0,0 -6.972925,3.56193 -6.972925,3.56193 v 0 c 0.01132,0.3593 0.02262,0.7186 0.03393,1.07791 0.0296,2.45528 -0.0077,4.90976 0.05372,7.36479 -0.103087,6.88761 -0.737423,13.75573 -2.080604,20.51971 -1.211636,5.74753 -2.459059,11.43674 -5.006777,16.78082 -0.799663,1.67737 -1.704665,3.31356 -2.755945,4.84583 -0.979056,1.427 -2.842564,2.33245 -3.311876,3.99818 -0.212667,0.7548 1.540256,-0.29574 2.310386,-0.44361 -3.000721,1.60366 -4.730668,3.07083 -8.318891,2.90057 -5.68924,-0.26995 -9.460389,-5.21636 -11.923676,-9.76481 -1.24147,-2.29237 -2.08852,-4.77734 -3.13278,-7.166 -2.019144,-7.6584 -3.044785,-10.30927 -3.781663,-18.37871 -1.170032,-12.81283 1.053923,-25.60402 4.578376,-37.88308 1.083858,-2.94665 1.966288,-5.97542 3.251571,-8.83995 2.152126,-4.7965 5.058695,-9.41466 8.617018,-13.30277 1.580603,-1.7271 3.558985,-3.05358 5.183146,-4.73978 0.169381,-0.17585 -0.956459,0.18542 -0.724107,0.11042 1.458891,-0.47092 2.940868,-0.86708 4.4113,-1.30062 1.118222,0.20962 2.322849,0.14957 3.354665,0.62885 4.287131,1.99138 4.587619,8.05049 4.374259,12.0685 0,0 6.975916,-3.55441 6.975916,-3.55441 z"
       id="path394"
       style="fill:url(#linearGradient410);stroke-width:0.264583" />
    <path
       inkscape:connector-curvature="0"
       d="m 105.72142,128.31853 c 0.72331,12.87072 2.39675,25.65491 4.12278,38.41706 2.2964,15.84603 4.72934,31.6716 7.17762,47.49377 0.81089,5.27791 1.24149,10.60323 1.78164,15.91416 0,0 6.78518,-3.66653 6.78518,-3.66653 v 0 c -0.83207,-5.19661 -1.50825,-10.41794 -2.41264,-15.60282 -2.80492,-15.63518 -6.39847,-31.13657 -8.08914,-46.96791 -1.49937,-13.01399 -3.08369,-26.17582 -2.2663,-39.30087 0,0 -7.09914,3.71314 -7.09914,3.71314 z"
       id="path396"
       style="fill:url(#linearGradient426);stroke-width:0.268069" />
    <path
       inkscape:connector-curvature="0"
       d="m 93.003597,145.34706 c 4.447853,-7.40333 11.198193,-13.21446 18.173263,-18.16838 2.39442,-1.70059 4.92025,-3.20814 7.38036,-4.81221 7.2176,-2.68047 15.41445,-7.31597 23.42717,-6.09752 4.59369,0.69853 5.36589,2.15132 8.68162,4.99417 0.93875,1.39298 2.03644,2.69116 2.81625,4.17897 2.63526,5.02779 2.95717,10.42382 1.80318,15.91678 -1.05638,5.02833 -2.10758,6.48557 -4.32231,11.04422 -5.83548,9.45449 -14.61441,16.34887 -23.31501,23.00934 -3.96576,3.0927 -8.14207,5.88819 -12.35005,8.63482 0,0 6.89622,-2.69483 6.89622,-2.69483 v 0 c 4.10178,-2.74131 8.17095,-5.5321 12.05609,-8.57764 8.57943,-6.73062 17.22569,-13.67988 22.89198,-23.18187 0.83928,-1.80028 1.81919,-3.54145 2.51785,-5.40082 1.35234,-3.59909 2.38558,-7.96513 2.39789,-11.83726 0.0196,-6.15141 -1.94917,-9.95944 -5.4855,-14.77106 -3.46185,-3.00842 -4.28607,-4.56964 -9.12515,-5.2994 -4.42851,-0.66784 -9.30733,0.62873 -13.41004,1.99645 -8.39874,2.79989 -12.81845,5.81218 -21.21685,10.32457 -2.48476,1.63133 -5.03157,3.17188 -7.4543,4.89401 -7.452067,5.2971 -14.643926,11.45636 -19.582899,19.23858 0,0 7.220236,-3.39092 7.220236,-3.39092 z"
       id="path398"
       style="fill:url(#linearGradient418);stroke-width:0.264582" />
    <path
       inkscape:connector-curvature="0"
       d="m 122.07342,181.39965 c 3.30818,3.73204 7.38835,7.08161 11.35032,10.46123 5.72824,4.88626 9.36857,8.11313 15.81038,12.5657 2.69201,1.86073 5.60419,3.55431 8.40627,5.3315 2.69276,1.39293 5.38553,2.78583 8.07829,4.17877 0,0 6.20175,-2.79784 6.20175,-2.79784 v 0 c -2.75527,-1.34365 -5.51052,-2.6873 -8.26578,-4.03093 -2.83268,-1.746 -5.79625,-3.39064 -8.49804,-5.23794 -5.87629,-4.01786 -10.57596,-8.02048 -15.41575,-12.66714 -3.61019,-3.46614 -7.106,-7.1142 -9.53464,-11.08657 0,0 -8.1328,3.28322 -8.1328,3.28322 z"
       id="path402"
       style="fill:url(#linearGradient434);stroke-width:0.262571" />
  </g>
</svg>
